<svg width="30" height="50" viewBox="0 0 30 50" fill="none" xmlns="http://www.w3.org/2000/svg">
<path d="M24.375 0C25.8668 0 27.2976 0.592632 28.3525 1.64752C29.4074 2.70242 30 4.13316 30 5.625V44.375C30 45.8668 29.4074 47.2976 28.3525 48.3525C27.2976 49.4074 25.8668 50 24.375 50H5.625C4.13316 50 2.70242 49.4074 1.64752 48.3525C0.592633 47.2976 0 45.8668 0 44.375V5.625C0 4.13316 0.592633 2.70242 1.64752 1.64752C2.70242 0.592632 4.13316 0 5.625 0H24.375ZM24.375 3.75H5.625C5.12772 3.75 4.65081 3.94754 4.29917 4.29917C3.94754 4.65081 3.75 5.12772 3.75 5.625V44.375C3.75 45.41 4.59 46.25 5.625 46.25H24.375C24.8723 46.25 25.3492 46.0525 25.7008 45.7008C26.0525 45.3492 26.25 44.8723 26.25 44.375V5.625C26.25 5.12772 26.0525 4.65081 25.7008 4.29917C25.3492 3.94754 24.8723 3.75 24.375 3.75ZM18.1225 38.75C18.6198 38.7493 19.097 38.9462 19.4491 39.2974C19.8012 39.6486 19.9993 40.1252 20 40.6225C20.0007 41.1198 19.8038 41.597 19.4526 41.9491C19.1014 42.3012 18.6248 42.4993 18.1275 42.5L11.8775 42.51C11.3802 42.5107 10.903 42.3138 10.5509 41.9626C10.1988 41.6114 10.0007 41.1348 10 40.6375C9.99934 40.1402 10.1962 39.663 10.5474 39.3109C10.8986 38.9588 11.3752 38.7607 11.8725 38.76L18.1225 38.75Z" fill="url(#paint0_linear_58_132)"/>
<defs>
<linearGradient id="paint0_linear_58_132" x1="15" y1="0" x2="15" y2="50" gradientUnits="userSpaceOnUse">
<stop stop-color="#4D76FF"/>
<stop offset="1" stop-color="#1A4FFF"/>
</linearGradient>
</defs>
</svg>
