<svg width="25" height="29" viewBox="0 0 25 29" fill="none" xmlns="http://www.w3.org/2000/svg">
<path d="M22.4565 11.25V21.75C22.4565 22.3467 22.2195 22.919 21.7975 23.341C21.3756 23.7629 20.8033 24 20.2065 24H5.20654C4.60981 24 4.03751 23.7629 3.61555 23.341C3.1936 22.919 2.95654 22.3467 2.95654 21.75V11.25M22.4565 11.25C22.4565 10.6533 22.2195 10.081 21.7975 9.65901C21.3756 9.23705 20.8033 9 20.2065 9H5.20654C4.60981 9 4.03751 9.23705 3.61555 9.65901C3.1936 10.081 2.95654 10.6533 2.95654 11.25M22.4565 11.25V11.493C22.4566 11.8771 22.3583 12.2549 22.171 12.5903C21.9837 12.9257 21.7136 13.2075 21.3865 13.409L13.8865 18.024C13.5317 18.2425 13.1232 18.3582 12.7065 18.3582C12.2898 18.3582 11.8813 18.2425 11.5265 18.024L4.02654 13.41C3.69946 13.2085 3.42941 12.9267 3.24211 12.5913C3.05481 12.2559 2.9565 11.8781 2.95654 11.494V11.25" stroke="#1A4FFF" stroke-width="1.5" stroke-linecap="round" stroke-linejoin="round"/>
</svg>
