<svg width="26" height="25" viewBox="0 0 26 25" fill="none" xmlns="http://www.w3.org/2000/svg">
<g clip-path="url(#clip0_1_2430)">
<path d="M21.8385 0H3.57632C1.71582 0 0.20752 1.50824 0.20752 3.3688V21.6311C0.20752 23.4916 1.71576 24.9999 3.57632 24.9999H12.5831L12.5985 16.0663H10.2775C9.97591 16.0663 9.7311 15.8224 9.72994 15.5208L9.71881 12.6411C9.71764 12.3378 9.96319 12.0914 10.2665 12.0914H12.5832V9.30886C12.5832 6.0798 14.5553 4.32156 17.4358 4.32156H19.7995C20.1019 4.32156 20.3472 4.56673 20.3472 4.86921V7.29736C20.3472 7.59972 20.1021 7.84484 19.7998 7.84502L18.3493 7.84569C16.7827 7.84569 16.4794 8.59009 16.4794 9.68253V12.0914H19.9216C20.2496 12.0914 20.504 12.3778 20.4654 12.7035L20.1241 15.5832C20.0914 15.8588 19.8577 16.0664 19.5803 16.0664H16.4948L16.4794 25H21.8386C23.6991 25 25.2073 23.4918 25.2073 21.6313V3.3688C25.2073 1.50824 23.699 0 21.8385 0Z" fill="#9F9F9F"/>
</g>
<defs>
<clipPath id="clip0_1_2430">
<rect width="25" height="25" fill="white" transform="translate(0.207031)"/>
</clipPath>
</defs>
</svg>
