<svg width="25" height="25" viewBox="0 0 25 25" fill="none" xmlns="http://www.w3.org/2000/svg">
<g clip-path="url(#clip0_1_2427)">
<path d="M7.23711 0.584017C5.96031 0.644217 5.08841 0.848017 4.32611 1.14742C3.53731 1.45492 2.86861 1.86742 2.20331 2.53512C1.53811 3.20282 1.12831 3.87192 0.823113 4.66212C0.527713 5.42592 0.327513 6.29862 0.271113 7.57612C0.214713 8.85362 0.202213 9.26432 0.208513 12.5231C0.214713 15.7817 0.229113 16.1902 0.291013 17.4704C0.352013 18.7469 0.555013 19.6186 0.854513 20.3811C1.16251 21.17 1.57451 21.8384 2.24251 22.5039C2.91041 23.1694 3.57901 23.5782 4.37101 23.8839C5.13421 24.1789 6.00711 24.38 7.28441 24.4359C8.56171 24.4919 8.97281 24.5049 12.2306 24.4986C15.4884 24.4924 15.8986 24.4779 17.1784 24.4172C18.4584 24.3565 19.3254 24.152 20.0882 23.8539C20.8771 23.5453 21.546 23.1339 22.211 22.4658C22.876 21.7976 23.2855 21.128 23.5905 20.3374C23.8862 19.5742 24.0871 18.7014 24.1425 17.425C24.1985 16.1441 24.2117 15.7352 24.2055 12.477C24.1992 9.21872 24.1845 8.81022 24.1238 7.53052C24.0631 6.25082 23.8598 5.38182 23.5605 4.61882C23.2521 3.82992 22.8405 3.16202 22.1729 2.49602C21.5052 1.83002 20.835 1.42082 20.0448 1.11652C19.281 0.821017 18.4087 0.619717 17.1314 0.564517C15.8541 0.509317 15.443 0.495017 12.184 0.501417C8.92501 0.507617 8.51701 0.521617 7.23711 0.584017ZM7.37731 22.2771C6.20731 22.2262 5.57201 22.0318 5.14861 21.8691C4.58801 21.6531 4.18861 21.392 3.76671 20.9741C3.34471 20.5563 3.08561 20.1555 2.86671 19.5961C2.70231 19.1727 2.50431 18.5381 2.44961 17.3681C2.39011 16.1036 2.37761 15.7239 2.37061 12.5201C2.36361 9.31642 2.37591 8.93712 2.43131 7.67212C2.48131 6.50312 2.67691 5.86712 2.83931 5.44392C3.05531 4.88262 3.31551 4.48392 3.73431 4.06232C4.15311 3.64062 4.55271 3.38092 5.11261 3.16202C5.53561 2.99692 6.17011 2.80062 7.33961 2.74492C8.60511 2.68492 8.98431 2.67292 12.1876 2.66592C15.3909 2.65892 15.7711 2.67092 17.0371 2.72672C18.2061 2.77752 18.8424 2.97122 19.2651 3.13472C19.8259 3.35072 20.2251 3.61012 20.6467 4.02972C21.0684 4.44912 21.3283 4.84732 21.5472 5.40842C21.7125 5.83012 21.9089 6.46442 21.9641 7.63472C22.0243 8.90022 22.038 9.27972 22.0437 12.4827C22.0495 15.6857 22.0382 16.0661 21.9827 17.3307C21.9317 18.5007 21.7377 19.1362 21.5747 19.5601C21.3587 20.1205 21.0984 20.5201 20.6793 20.9415C20.2603 21.363 19.8612 21.6226 19.301 21.8415C18.8786 22.0064 18.2433 22.2032 17.0748 22.2589C15.8092 22.3184 15.43 22.3309 12.2255 22.3379C9.02101 22.3449 8.64281 22.3319 7.37731 22.2771ZM17.16 6.08642C17.1605 6.37125 17.2454 6.64954 17.4041 6.88609C17.5627 7.12265 17.788 7.30684 18.0513 7.41537C18.3146 7.52391 18.6043 7.55191 18.8835 7.49583C19.1628 7.43975 19.4191 7.30212 19.6202 7.10034C19.8212 6.89855 19.9579 6.64169 20.0129 6.36222C20.0679 6.08276 20.0388 5.79325 19.9293 5.53032C19.8198 5.26739 19.6347 5.04284 19.3976 4.88508C19.1604 4.72731 18.8818 4.64342 18.597 4.64402C18.2152 4.64481 17.8493 4.79721 17.5799 5.06769C17.3104 5.33818 17.1594 5.70461 17.16 6.08642ZM6.04551 12.512C6.05221 15.9152 8.81611 18.6677 12.2185 18.6613C15.6211 18.6548 18.3755 15.8912 18.3691 12.488C18.3626 9.08482 15.5981 6.33152 12.1951 6.33822C8.79211 6.34492 6.03911 9.10922 6.04551 12.512ZM8.20701 12.5077C8.20545 11.7166 8.43852 10.9428 8.87674 10.2841C9.31496 9.62546 9.93866 9.11154 10.669 8.80735C11.3993 8.50315 12.2034 8.42234 12.9796 8.57514C13.7558 8.72794 14.4693 9.10749 15.0298 9.66578C15.5903 10.2241 15.9727 10.936 16.1286 11.7117C16.2845 12.4873 16.2069 13.2917 15.9056 14.0232C15.6043 14.7547 15.0928 15.3804 14.4359 15.8213C13.779 16.2621 13.0061 16.4982 12.215 16.4998C11.6897 16.5009 11.1693 16.3985 10.6836 16.1985C10.1978 15.9985 9.75628 15.7047 9.38409 15.334C9.0119 14.9633 8.71638 14.5229 8.51442 14.0379C8.31245 13.553 8.208 13.033 8.20701 12.5077Z" fill="#9F9F9F"/>
</g>
<defs>
<clipPath id="clip0_1_2427">
<rect width="24" height="24" fill="white" transform="translate(0.207031 0.5)"/>
</clipPath>
</defs>
</svg>
