<svg width="28" height="27" viewBox="0 0 28 27" fill="none" xmlns="http://www.w3.org/2000/svg">
<path d="M0.946777 2.13949C0.946777 1.09029 1.81862 0.23999 2.89434 0.23999H25.5192C26.595 0.23999 27.4668 1.09029 27.4668 2.13949V24.8605C27.4668 25.9097 26.595 26.76 25.5192 26.76H2.89434C1.81862 26.76 0.946777 25.9097 0.946777 24.8605V2.13949ZM9.13981 22.4406V10.4651H5.16015V22.4406H9.13981ZM7.15081 8.82917C8.53814 8.82917 9.4017 7.91091 9.4017 6.7606C9.37683 5.58543 8.53979 4.69204 7.17733 4.69204C5.81486 4.69204 4.92478 5.58709 4.92478 6.7606C4.92478 7.91091 5.78834 8.82917 7.12429 8.82917H7.15081ZM15.2858 22.4406V15.7526C15.2858 15.3945 15.3123 15.0365 15.4184 14.7813C15.7052 14.0669 16.3599 13.326 17.4605 13.326C18.9008 13.326 19.476 14.4232 19.476 16.0343V22.4406H23.4557V15.5719C23.4557 11.8922 21.4932 10.1817 18.8743 10.1817C16.7627 10.1817 15.8162 11.3419 15.2858 12.1591V12.2005H15.2593C15.2681 12.1867 15.277 12.1729 15.2858 12.1591V10.4651H11.3078C11.3575 11.5889 11.3078 22.4406 11.3078 22.4406H15.2858Z" fill="#9F9F9F"/>
</svg>
