<svg width="25" height="25" viewBox="0 0 25 25" fill="none" xmlns="http://www.w3.org/2000/svg">
<path d="M15.7065 11C15.7065 11.7956 15.3905 12.5587 14.8279 13.1213C14.2653 13.6839 13.5022 14 12.7065 14C11.9109 14 11.1478 13.6839 10.5852 13.1213C10.0226 12.5587 9.70654 11.7956 9.70654 11C9.70654 10.2044 10.0226 9.44129 10.5852 8.87868C11.1478 8.31607 11.9109 8 12.7065 8C13.5022 8 14.2653 8.31607 14.8279 8.87868C15.3905 9.44129 15.7065 10.2044 15.7065 11Z" stroke="#1A4FFF" stroke-width="1.5" stroke-linecap="round" stroke-linejoin="round"/>
<path d="M20.2065 11C20.2065 18.142 12.7065 22.25 12.7065 22.25C12.7065 22.25 5.20654 18.142 5.20654 11C5.20654 9.01088 5.99672 7.10322 7.40324 5.6967C8.80976 4.29018 10.7174 3.5 12.7065 3.5C14.6957 3.5 16.6033 4.29018 18.0098 5.6967C19.4164 7.10322 20.2065 9.01088 20.2065 11Z" stroke="#1A4FFF" stroke-width="1.5" stroke-linecap="round" stroke-linejoin="round"/>
</svg>
