<svg width="52" height="42" viewBox="0 0 52 42" fill="none" xmlns="http://www.w3.org/2000/svg">
<mask id="mask0_58_146" style="mask-type:luminance" maskUnits="userSpaceOnUse" x="0" y="0" width="52" height="42">
<path d="M47.25 1H4.75C2.67893 1 1 2.67893 1 4.75V37.25C1 39.3211 2.67893 41 4.75 41H47.25C49.3211 41 51 39.3211 51 37.25V4.75C51 2.67893 49.3211 1 47.25 1Z" stroke="white" stroke-width="2" stroke-linejoin="round"/>
<path d="M1 4.75C1 3.75544 1.39509 2.80161 2.09835 2.09835C2.80161 1.39509 3.75544 1 4.75 1H47.25C48.2446 1 49.1984 1.39509 49.9016 2.09835C50.6049 2.80161 51 3.75544 51 4.75V16H1V4.75Z" fill="#555555" stroke="white" stroke-width="2"/>
<path d="M6 8.5C6 7.11929 7.11929 6 8.5 6C9.88071 6 11 7.11929 11 8.5C11 9.88071 9.88071 11 8.5 11C7.11929 11 6 9.88071 6 8.5Z" fill="white"/>
<path d="M13.5 8.5C13.5 7.11929 14.6193 6 16 6C17.3807 6 18.5 7.11929 18.5 8.5C18.5 9.88071 17.3807 11 16 11C14.6193 11 13.5 9.88071 13.5 8.5Z" fill="white"/>
</mask>
<g mask="url(#mask0_58_146)">
<path d="M-4 -9H56V51H-4V-9Z" fill="url(#paint0_linear_58_146)"/>
</g>
<defs>
<linearGradient id="paint0_linear_58_146" x1="26" y1="-9" x2="26" y2="51" gradientUnits="userSpaceOnUse">
<stop stop-color="#4D76FF"/>
<stop offset="1" stop-color="#1A4FFF"/>
</linearGradient>
</defs>
</svg>
