<svg width="25" height="24" viewBox="0 0 25 24" fill="none" xmlns="http://www.w3.org/2000/svg">
<path d="M2.95654 6.75C2.95654 15.034 9.67254 21.75 17.9565 21.75H20.2065C20.8033 21.75 21.3756 21.5129 21.7975 21.091C22.2195 20.669 22.4565 20.0967 22.4565 19.5V18.128C22.4565 17.612 22.1055 17.162 21.6045 17.037L17.1815 15.931C16.7415 15.821 16.2795 15.986 16.0085 16.348L15.0385 17.641C14.7565 18.017 14.2695 18.183 13.8285 18.021C12.1914 17.4191 10.7047 16.4686 9.47132 15.2352C8.23795 14.0018 7.28742 12.5151 6.68554 10.878C6.52354 10.437 6.68954 9.95 7.06554 9.668L8.35854 8.698C8.72154 8.427 8.88554 7.964 8.77554 7.525L7.66954 3.102C7.60868 2.85869 7.46826 2.6427 7.2706 2.48834C7.07293 2.33397 6.82935 2.25008 6.57854 2.25H5.20654C4.60981 2.25 4.03751 2.48705 3.61555 2.90901C3.1936 3.33097 2.95654 3.90326 2.95654 4.5V6.75Z" stroke="#1A4FFF" stroke-width="1.5" stroke-linecap="round" stroke-linejoin="round"/>
</svg>
